<mxfile host="app.diagrams.net" modified="2023-10-11T01:05:18.550Z" agent="Mozilla/5.0 (Windows NT 10.0; Win64; x64) AppleWebKit/537.36 (KHTML, like Gecko) Chrome/117.0.0.0 Safari/537.36" version="21.6.9" etag="-pigpX5V-1pdt8gewecs" type="github">
  <diagram name="Page-1" id="-_rjMfB-vIKXV1LB08OI">
    <mxGraphModel>
      <root>
        <mxCell id="0" />
        <mxCell id="1" parent="0" />
      </root>
    </mxGraphModel>
  </diagram>
</mxfile>
